<svg width="400" height="490" viewBox="0 0 400 490" fill="none" xmlns="http://www.w3.org/2000/svg">
<g clip-path="url(#clip0_42_457)">
<path d="M392.5 105V105.5H393H394C397.232 105.5 399.5 107.367 399.5 110V183C399.5 185.522 397.223 187.5 394 187.5H393H392.5V188V619C392.5 640.459 374.123 663.5 348 663.5H52C25.8767 663.5 7.5 640.459 7.5 619V227V226.5H7H6C2.68535 226.5 0.5 224.447 0.5 222V176.322C0.5 173.808 3.06474 171.651 6.2984 171.651L7.2917 171.651L7.79167 171.651V171.151V160.385V159.885H7.29167H6.2984C2.97291 159.885 0.5 157.652 0.5 155.214V110C0.5 107.367 2.77451 105.491 6.00449 105.49C6.00524 105.49 6.00599 105.49 6.00673 105.49L6.9948 105.5L7.5 105.505V105V45C7.5 23.5406 25.8767 0.5 52 0.5H348C374.123 0.5 392.5 23.5406 392.5 45V105Z" fill="white" stroke="#BE998F"/>
<rect x="14.5" y="7.5" width="371" height="649" rx="37.5" fill="white" stroke="#BE998F"/>
<g clip-path="url(#clip1_42_457)">
<mask id="path-3-outside-1_42_457" maskUnits="userSpaceOnUse" x="19" y="12" width="362" height="478" fill="black">
<rect fill="white" x="19" y="12" width="362" height="478"/>
<path d="M20 45C20 27.3269 34.3269 13 52 13H348C365.673 13 380 27.3269 380 45V490H20V45Z"/>
</mask>
<path d="M20 45C20 27.3269 34.3269 13 52 13H348C365.673 13 380 27.3269 380 45V490H20V45Z" fill="#FFFBFF"/>
<path d="M20 45C20 27.3269 34.3269 13 52 13H348C365.673 13 380 27.3269 380 45V93H20V45Z" fill="#FFFBFF"/>
<path d="M45 53L54 44V62L45 53Z" fill="#6F5F70"/>
<rect x="80" y="33" width="40" height="40" rx="20" fill="#E6E4F2"/>
<path d="M105.563 61C103.509 61 102.007 59.9644 101.057 57.8932C100.597 58.7809 99.992 59.5206 99.2411 60.1123C98.4901 60.7041 97.6396 61 96.6894 61C94.0228 61 92.3217 59.1063 91.5861 55.319L90.0459 47.4632C89.908 46.7531 89.6705 46.2575 89.3333 45.9764C88.9961 45.6805 88.5517 45.5326 88 45.5326V45.2441H93.9998V45.5326C92.8504 45.5326 92.406 46.1761 92.6665 47.4632L94.1378 54.9196C94.6895 57.7453 95.9538 59.1581 97.9308 59.1581C99.0342 59.1581 100.015 58.5959 100.873 57.4716C100.628 56.7762 100.429 56.0587 100.276 55.319L98.7353 47.4632C98.5974 46.7531 98.3522 46.2575 97.9997 45.9764C97.6626 45.6805 97.2181 45.5326 96.6664 45.5326V45.2441H102.689V45.5326C101.54 45.5326 101.095 46.1761 101.356 47.4632L102.827 54.9196C103.103 56.325 103.524 57.3754 104.092 58.0707C104.659 58.7513 105.448 59.0915 106.459 59.0915C107.762 59.0915 108.927 58.411 109.953 57.0499C110.996 55.6741 111.509 54.0023 111.494 52.0347C111.478 50.4961 111.164 49.2534 110.551 48.3065C109.938 47.3597 109.187 46.8863 108.298 46.8863C107.961 46.8863 107.57 47.0268 107.126 47.3079C106.697 47.589 106.314 47.7369 105.977 47.7517C105.578 47.7665 105.233 47.6408 104.942 47.3745C104.666 47.0934 104.528 46.7679 104.528 46.3981C104.528 45.9986 104.682 45.6657 104.988 45.3994C105.295 45.1331 105.747 45 106.344 45C107.831 45 109.134 45.5992 110.252 46.7975C111.386 47.9958 111.969 49.712 111.999 51.9459C112.015 53.4697 111.754 54.927 111.218 56.3176C110.681 57.6935 109.907 58.8178 108.896 59.6907C107.9 60.5636 106.789 61 105.563 61Z" fill="#6F5F70"/>
<path d="M140.848 47.5H139.408L137.056 38.892L134.704 47.5H133.264L130.224 36.828H131.696L134.064 45.724L136.512 36.828H137.616L140.064 45.724L142.416 36.828H143.888L140.848 47.5ZM145.917 38.668C145.704 38.668 145.517 38.5933 145.357 38.444C145.197 38.284 145.117 38.092 145.117 37.868C145.117 37.644 145.197 37.452 145.357 37.292C145.517 37.132 145.704 37.052 145.917 37.052C146.141 37.052 146.333 37.132 146.493 37.292C146.653 37.452 146.733 37.644 146.733 37.868C146.733 38.092 146.653 38.284 146.493 38.444C146.333 38.5933 146.141 38.668 145.917 38.668ZM146.525 47.5H145.325V39.772H146.525V47.5ZM155.335 47.5H154.135V42.444C154.135 41.7933 153.985 41.3347 153.687 41.068C153.388 40.7907 152.961 40.652 152.407 40.652C151.959 40.652 151.521 40.7693 151.095 41.004C150.679 41.2387 150.353 41.5213 150.119 41.852V47.5H148.919V39.772H150.119V40.892C150.417 40.54 150.817 40.236 151.319 39.98C151.82 39.7133 152.337 39.58 152.871 39.58C154.513 39.58 155.335 40.412 155.335 42.076V47.5ZM160.179 47.692C158.867 47.692 157.827 47.2867 157.059 46.476L157.683 45.612C157.95 45.9213 158.313 46.1827 158.771 46.396C159.241 46.6093 159.726 46.716 160.227 46.716C160.803 46.716 161.251 46.5933 161.571 46.348C161.891 46.1027 162.051 45.7827 162.051 45.388C162.051 45.0467 161.886 44.78 161.555 44.588C161.225 44.3853 160.825 44.236 160.355 44.14C159.897 44.0333 159.433 43.916 158.963 43.788C158.494 43.6493 158.094 43.42 157.763 43.1C157.433 42.7693 157.267 42.3373 157.267 41.804C157.267 41.1747 157.523 40.6467 158.035 40.22C158.558 39.7933 159.262 39.58 160.147 39.58C161.31 39.58 162.265 39.9533 163.011 40.7L162.451 41.532C161.907 40.8813 161.139 40.556 160.147 40.556C159.625 40.556 159.209 40.6733 158.899 40.908C158.59 41.132 158.435 41.42 158.435 41.772C158.435 42.0813 158.601 42.3267 158.931 42.508C159.262 42.6787 159.657 42.8173 160.115 42.924C160.585 43.02 161.054 43.1373 161.523 43.276C161.993 43.4147 162.393 43.66 162.723 44.012C163.054 44.3533 163.219 44.8013 163.219 45.356C163.219 46.0387 162.953 46.5987 162.419 47.036C161.886 47.4733 161.139 47.692 160.179 47.692ZM167.121 47.692C166.555 47.692 166.129 47.5373 165.841 47.228C165.553 46.9187 165.409 46.4707 165.409 45.884V40.828H164.129V39.772H165.409V37.66H166.609V39.772H168.177V40.828H166.609V45.628C166.609 45.9267 166.673 46.1667 166.801 46.348C166.939 46.5293 167.137 46.62 167.393 46.62C167.745 46.62 168.017 46.5133 168.209 46.3L168.561 47.196C168.209 47.5267 167.729 47.692 167.121 47.692ZM176.016 46.524C175.323 47.3027 174.4 47.692 173.248 47.692C172.096 47.692 171.168 47.3027 170.464 46.524C169.771 45.7453 169.424 44.78 169.424 43.628C169.424 42.476 169.771 41.516 170.464 40.748C171.168 39.9693 172.096 39.58 173.248 39.58C174.4 39.58 175.323 39.9693 176.016 40.748C176.72 41.516 177.072 42.476 177.072 43.628C177.072 44.78 176.72 45.7453 176.016 46.524ZM171.36 45.756C171.829 46.332 172.459 46.62 173.248 46.62C174.037 46.62 174.661 46.332 175.12 45.756C175.579 45.1693 175.808 44.46 175.808 43.628C175.808 42.796 175.579 42.092 175.12 41.516C174.661 40.94 174.037 40.652 173.248 40.652C172.459 40.652 171.829 40.9453 171.36 41.532C170.901 42.108 170.672 42.8067 170.672 43.628C170.672 44.46 170.901 45.1693 171.36 45.756ZM185.444 47.5H184.244V42.444C184.244 41.7933 184.095 41.3347 183.796 41.068C183.497 40.7907 183.071 40.652 182.516 40.652C182.068 40.652 181.631 40.7693 181.204 41.004C180.788 41.2387 180.463 41.5213 180.228 41.852V47.5H179.028V39.772H180.228V40.892C180.527 40.54 180.927 40.236 181.428 39.98C181.929 39.7133 182.447 39.58 182.98 39.58C184.623 39.58 185.444 40.412 185.444 42.076V47.5ZM195.47 47.692C193.742 47.692 192.376 47.1267 191.374 45.996L192.158 44.988C193.064 46.0013 194.184 46.508 195.518 46.508C196.382 46.508 197.016 46.3267 197.422 45.964C197.827 45.5907 198.03 45.1587 198.03 44.668C198.03 44.2947 197.912 43.98 197.678 43.724C197.443 43.468 197.139 43.2707 196.766 43.132C196.403 42.9827 195.992 42.8493 195.534 42.732C195.086 42.6147 194.638 42.4867 194.19 42.348C193.742 42.1987 193.331 42.0227 192.958 41.82C192.595 41.6173 192.296 41.3293 192.062 40.956C191.827 40.5827 191.71 40.14 191.71 39.628C191.71 38.7533 192.056 38.044 192.75 37.5C193.443 36.9453 194.318 36.668 195.374 36.668C196.963 36.668 198.227 37.164 199.166 38.156L198.366 39.132C197.587 38.2787 196.558 37.852 195.278 37.852C194.638 37.852 194.11 38.012 193.694 38.332C193.288 38.6413 193.086 39.0467 193.086 39.548C193.086 39.9213 193.24 40.2307 193.55 40.476C193.87 40.7213 194.259 40.9027 194.718 41.02C195.187 41.1373 195.694 41.2867 196.238 41.468C196.792 41.6387 197.299 41.8253 197.758 42.028C198.227 42.22 198.616 42.5347 198.926 42.972C199.246 43.4093 199.406 43.9373 199.406 44.556C199.406 45.4307 199.08 46.172 198.43 46.78C197.79 47.388 196.803 47.692 195.47 47.692ZM207.757 47.5H206.557V46.412C206.237 46.7747 205.831 47.0787 205.341 47.324C204.861 47.5693 204.349 47.692 203.805 47.692C202.162 47.692 201.341 46.8707 201.341 45.228V39.772H202.541V44.86C202.541 45.5 202.685 45.9533 202.973 46.22C203.271 46.4867 203.703 46.62 204.269 46.62C204.717 46.62 205.149 46.508 205.565 46.284C205.991 46.06 206.322 45.7827 206.557 45.452V39.772H207.757V47.5ZM213.961 47.692C212.873 47.692 212.004 47.2387 211.353 46.332V50.444H210.153V39.772H211.353V40.924C211.641 40.5187 212.014 40.1933 212.473 39.948C212.932 39.7027 213.428 39.58 213.961 39.58C214.985 39.58 215.812 39.948 216.441 40.684C217.081 41.4093 217.401 42.3907 217.401 43.628C217.401 44.8653 217.081 45.852 216.441 46.588C215.812 47.324 214.985 47.692 213.961 47.692ZM213.657 46.62C214.414 46.62 215.017 46.3427 215.465 45.788C215.913 45.2227 216.137 44.5027 216.137 43.628C216.137 42.7533 215.913 42.0387 215.465 41.484C215.017 40.9293 214.414 40.652 213.657 40.652C213.198 40.652 212.75 40.7747 212.313 41.02C211.886 41.2547 211.566 41.5427 211.353 41.884V45.372C211.566 45.724 211.886 46.0227 212.313 46.268C212.75 46.5027 213.198 46.62 213.657 46.62ZM223.117 47.692C222.029 47.692 221.16 47.2387 220.509 46.332V50.444H219.309V39.772H220.509V40.924C220.797 40.5187 221.171 40.1933 221.629 39.948C222.088 39.7027 222.584 39.58 223.117 39.58C224.141 39.58 224.968 39.948 225.597 40.684C226.237 41.4093 226.557 42.3907 226.557 43.628C226.557 44.8653 226.237 45.852 225.597 46.588C224.968 47.324 224.141 47.692 223.117 47.692ZM222.813 46.62C223.571 46.62 224.173 46.3427 224.621 45.788C225.069 45.2227 225.293 44.5027 225.293 43.628C225.293 42.7533 225.069 42.0387 224.621 41.484C224.173 40.9293 223.571 40.652 222.813 40.652C222.355 40.652 221.907 40.7747 221.469 41.02C221.043 41.2547 220.723 41.5427 220.509 41.884V45.372C220.723 45.724 221.043 46.0227 221.469 46.268C221.907 46.5027 222.355 46.62 222.813 46.62ZM234.61 46.524C233.916 47.3027 232.994 47.692 231.842 47.692C230.69 47.692 229.762 47.3027 229.058 46.524C228.364 45.7453 228.018 44.78 228.018 43.628C228.018 42.476 228.364 41.516 229.058 40.748C229.762 39.9693 230.69 39.58 231.842 39.58C232.994 39.58 233.916 39.9693 234.61 40.748C235.314 41.516 235.666 42.476 235.666 43.628C235.666 44.78 235.314 45.7453 234.61 46.524ZM229.954 45.756C230.423 46.332 231.052 46.62 231.842 46.62C232.631 46.62 233.255 46.332 233.714 45.756C234.172 45.1693 234.402 44.46 234.402 43.628C234.402 42.796 234.172 42.092 233.714 41.516C233.255 40.94 232.631 40.652 231.842 40.652C231.052 40.652 230.423 40.9453 229.954 41.532C229.495 42.108 229.266 42.8067 229.266 43.628C229.266 44.46 229.495 45.1693 229.954 45.756ZM238.822 47.5H237.622V39.772H238.822V41.02C239.537 40.0813 240.395 39.612 241.398 39.612V40.844C241.249 40.812 241.089 40.796 240.918 40.796C240.555 40.796 240.161 40.924 239.734 41.18C239.307 41.436 239.003 41.7187 238.822 42.028V47.5ZM244.855 47.692C244.29 47.692 243.863 47.5373 243.575 47.228C243.287 46.9187 243.143 46.4707 243.143 45.884V40.828H241.863V39.772H243.143V37.66H244.343V39.772H245.911V40.828H244.343V45.628C244.343 45.9267 244.407 46.1667 244.535 46.348C244.674 46.5293 244.871 46.62 245.127 46.62C245.479 46.62 245.751 46.5133 245.943 46.3L246.295 47.196C245.943 47.5267 245.463 47.692 244.855 47.692Z" fill="#6F5F70"/>
<path d="M134.56 69.692C132.304 69.692 130.864 67.884 130.864 65.628C130.864 63.372 132.304 61.58 134.56 61.58C136.848 61.58 138.288 63.372 138.288 65.628C138.288 67.884 136.848 69.692 134.56 69.692ZM134.56 68.94C136.384 68.94 137.392 67.356 137.392 65.628C137.392 63.916 136.384 62.332 134.56 62.332C132.768 62.332 131.744 63.916 131.744 65.628C131.744 67.356 132.768 68.94 134.56 68.94ZM146.485 69.5H145.653V64.268C145.653 62.78 144.901 62.332 143.781 62.332C142.789 62.332 141.765 62.956 141.269 63.66V69.5H140.437V61.772H141.269V62.94C141.829 62.268 142.933 61.58 144.053 61.58C145.621 61.58 146.485 62.348 146.485 64.092V69.5ZM149.909 69.5H149.077V58.828H149.909V69.5ZM152.915 60.556C152.579 60.556 152.275 60.268 152.275 59.916C152.275 59.564 152.579 59.292 152.915 59.292C153.267 59.292 153.555 59.564 153.555 59.916C153.555 60.268 153.267 60.556 152.915 60.556ZM153.331 69.5H152.499V61.772H153.331V69.5ZM161.969 69.5H161.137V64.268C161.137 62.78 160.385 62.332 159.265 62.332C158.273 62.332 157.249 62.956 156.753 63.66V69.5H155.921V61.772H156.753V62.94C157.313 62.268 158.417 61.58 159.537 61.58C161.105 61.58 161.969 62.348 161.969 64.092V69.5ZM167.986 69.692C165.73 69.692 164.13 68.012 164.13 65.628C164.13 63.388 165.698 61.58 167.842 61.58C170.194 61.58 171.49 63.436 171.49 65.676V65.9H165.026C165.106 67.58 166.226 68.972 168.05 68.972C169.026 68.972 169.922 68.604 170.578 67.9L171.01 68.444C170.242 69.244 169.266 69.692 167.986 69.692ZM170.642 65.244C170.626 63.932 169.762 62.3 167.826 62.3C166.002 62.3 165.09 63.9 165.026 65.244H170.642Z" fill="#6F5F70"/>
<path fill-rule="evenodd" clip-rule="evenodd" d="M293.056 44C291.321 44 290 45.542 290 47.333V58.665C290 60.456 291.321 61.998 293.056 61.998H305.833C307.568 61.998 308.889 60.456 308.889 58.665V56.2474L313.5 60.0815V45.9165L308.889 49.7505V48.1424V47.333C308.889 45.542 307.568 44 305.833 44H293.056ZM291 47.333C291 45.9948 291.968 45 293.056 45H305.833C306.921 45 307.889 45.9948 307.889 47.333V48.1424V58.665C307.889 60.0032 306.921 60.998 305.833 60.998H293.056C291.968 60.998 291 60.0032 291 58.665V47.333Z" fill="#6F5F70"/>
<path d="M341 46.5C341 55.0604 347.94 62 356.5 62C356.886 62 357.269 61.9859 357.648 61.9581C358.083 61.9262 358.301 61.9103 358.499 61.7963C358.663 61.7019 358.818 61.5345 358.901 61.364C359 61.1582 359 60.9181 359 60.438V57.6207C359 57.2169 359 57.015 358.933 56.842C358.875 56.6891 358.779 56.553 358.656 56.4456C358.516 56.324 358.326 56.255 357.947 56.117L354.74 54.9509C354.298 54.7904 354.078 54.7101 353.868 54.7237C353.684 54.7357 353.506 54.7988 353.355 54.9058C353.184 55.0271 353.063 55.2285 352.821 55.6314L352 57C349.35 55.7999 347.202 53.6489 346 51L347.369 50.1788C347.771 49.9371 347.973 49.8163 348.094 49.6451C348.201 49.4941 348.264 49.3164 348.276 49.1317C348.29 48.9223 348.21 48.7015 348.049 48.26L346.883 45.0532C346.745 44.6738 346.676 44.484 346.554 44.3441C346.447 44.2205 346.311 44.1252 346.158 44.0665C345.985 44 345.783 44 345.379 44H342.562C342.082 44 341.842 44 341.636 44.0993C341.465 44.1815 341.298 44.337 341.204 44.501C341.09 44.6991 341.074 44.9166 341.042 45.3517C341.014 45.7309 341 46.1138 341 46.5Z" fill="#6F5F70"/>
</g>
<path d="M19 45C19 26.7746 33.7746 12 52 12H348C366.225 12 381 26.7746 381 45H379C379 27.8792 365.121 14 348 14H52C34.8792 14 21 27.8792 21 45H19ZM380 490H20H380ZM19 490V45C19 26.7746 33.7746 12 52 12V14C34.8792 14 21 27.8792 21 45V490H19ZM348 12C366.225 12 381 26.7746 381 45V490H379V45C379 27.8792 365.121 14 348 14V12Z" fill="#BE998F" mask="url(#path-3-outside-1_42_457)"/>
</g>
<defs>
<clipPath id="clip0_42_457">
<rect width="400" height="490" fill="white"/>
</clipPath>
<clipPath id="clip1_42_457">
<path d="M20 45C20 27.3269 34.3269 13 52 13H348C365.673 13 380 27.3269 380 45V490H20V45Z" fill="white"/>
</clipPath>
</defs>
</svg>
