<svg width="312" height="400" viewBox="0 0 312 400" fill="none" xmlns="http://www.w3.org/2000/svg">
<path d="M306.5 82V82.5H307H308C309.38 82.5 310.228 82.9541 310.741 83.5701C311.268 84.2021 311.5 85.0743 311.5 86V142C311.5 142.926 311.268 143.798 310.741 144.43C310.228 145.046 309.38 145.5 308 145.5H307H306.5V146V399.5H5.5V178V177.5H5H4C2.62024 177.5 1.77246 177.046 1.25911 176.43C0.732398 175.798 0.5 174.926 0.5 174V138C0.5 137.074 0.732398 136.202 1.25911 135.57C1.77246 134.954 2.62024 134.5 4 134.5H5H5.50037L5.5 134L5.49327 125L5.49289 124.5H4.99327H4C2.61992 124.5 1.76794 124.045 1.25331 123.45C0.726913 122.841 0.5 122.022 0.5 121.214V86C0.5 85.0742 0.732427 84.1993 1.26028 83.5645C1.77439 82.9463 2.6232 82.4902 4.0045 82.4897C4.00524 82.4897 4.00599 82.4897 4.00673 82.4897L4.9948 82.5L5.5 82.5052V82V36C5.5 16.2761 21.2761 0.5 41 0.5H271C290.724 0.5 306.5 16.2761 306.5 36V82Z" fill="white" stroke="#BE998F"/>
<path d="M6 38C6 18.1177 22.1177 2 42 2H270C289.882 2 306 18.1177 306 38V400H6V38Z" fill="white"/>
<mask id="path-3-inside-1_48_320" fill="white">
<path d="M11 36C11 19.4315 24.4315 6 41 6H271C287.569 6 301 19.4315 301 36V400H11V36Z"/>
</mask>
<path d="M11 36C11 19.4315 24.4315 6 41 6H271C287.569 6 301 19.4315 301 36V400H11V36Z" fill="white"/>
<path d="M10 36C10 18.8792 23.8792 5 41 5H271C288.121 5 302 18.8792 302 36H300C300 19.9837 287.016 7 271 7H41C24.9837 7 12 19.9837 12 36H10ZM301 400H11H301ZM10 400V36C10 18.8792 23.8792 5 41 5V7C24.9837 7 12 19.9837 12 36V400H10ZM271 5C288.121 5 302 18.8792 302 36V400H300V36C300 19.9837 287.016 7 271 7V5Z" fill="#BE998F" mask="url(#path-3-inside-1_48_320)"/>
<mask id="path-5-inside-2_48_320" fill="white">
<path d="M15 36C15 21.6406 26.6406 10 41 10H271C285.359 10 297 21.6406 297 36V400H15V36Z"/>
</mask>
<path d="M15 36C15 21.6406 26.6406 10 41 10H271C285.359 10 297 21.6406 297 36V400H15V36Z" fill="#FFFBFF"/>
<path d="M14 36C14 21.0883 26.0883 9 41 9H271C285.912 9 298 21.0883 298 36H296C296 22.1929 284.807 11 271 11H41C27.1929 11 16 22.1929 16 36H14ZM297 400H15H297ZM14 400V36C14 21.0883 26.0883 9 41 9V11C27.1929 11 16 22.1929 16 36V400H14ZM271 9C285.912 9 298 21.0883 298 36V400H296V36C296 22.1929 284.807 11 271 11V9Z" fill="#BE998F" mask="url(#path-5-inside-2_48_320)"/>
<path d="M16 37C16 22.6406 27.6406 11 42 11H270C284.359 11 296 22.6406 296 37V73H16V37Z" fill="#FFFBFF"/>
<path d="M36 41.5L43 35V48L36 41.5Z" fill="#6F5F70"/>
<rect x="62" y="27" width="30" height="30" rx="15" fill="#E6E4F2"/>
<path d="M81.1721 48C79.6319 48 78.5055 47.2233 77.7928 45.6699C77.448 46.3356 76.994 46.8904 76.4308 47.3343C75.8676 47.7781 75.2297 48 74.5171 48C72.5171 48 71.2413 46.5798 70.6896 43.7393L69.5344 37.8474C69.431 37.3148 69.2528 36.9431 69 36.7323C68.7471 36.5104 68.4138 36.3994 68 36.3994V36.1831H72.4999V36.3994C71.6378 36.3994 71.3045 36.8821 71.4999 37.8474L72.6033 43.4397C73.0171 45.5589 73.9654 46.6186 75.4481 46.6186C76.2756 46.6186 77.0113 46.1969 77.6549 45.3537C77.471 44.8322 77.3216 44.294 77.2067 43.7393L76.0515 37.8474C75.9481 37.3148 75.7642 36.9431 75.4998 36.7323C75.2469 36.5104 74.9136 36.3994 74.4998 36.3994V36.1831H79.0169V36.3994C78.1549 36.3994 77.8216 36.8821 78.017 37.8474L79.1204 43.4397C79.3273 44.4938 79.6434 45.2816 80.0686 45.8031C80.4939 46.3135 81.0859 46.5687 81.8445 46.5687C82.8214 46.5687 83.695 46.0583 84.4651 45.0374C85.2467 44.0055 85.6317 42.7517 85.6202 41.276C85.6087 40.1221 85.3731 39.19 84.9133 38.4799C84.4536 37.7698 83.8904 37.4147 83.2237 37.4147C82.9709 37.4147 82.6778 37.5201 82.3444 37.7309C82.0226 37.9417 81.7353 38.0527 81.4824 38.0638C81.1836 38.0749 80.9249 37.9806 80.7066 37.7809C80.4997 37.57 80.3962 37.3259 80.3962 37.0485C80.3962 36.749 80.5112 36.4993 80.741 36.2996C80.9709 36.0999 81.31 36 81.7583 36C82.8732 36 83.8502 36.4494 84.6892 37.3481C85.5398 38.2469 85.9765 39.534 85.9995 41.2094C86.011 42.3523 85.8156 43.4452 85.4133 44.4882C85.011 45.5201 84.4306 46.3634 83.672 47.018C82.9249 47.6727 82.0916 48 81.1721 48Z" fill="#6F5F70"/>
<path d="M108.136 36.5H107.056L105.292 30.044L103.528 36.5H102.448L100.168 28.496H101.272L103.048 35.168L104.884 28.496H105.712L107.548 35.168L109.312 28.496H110.428L108.136 36.5ZM111.95 29.876C111.614 29.876 111.338 29.612 111.338 29.276C111.338 28.94 111.614 28.664 111.95 28.664C112.286 28.664 112.55 28.94 112.55 29.276C112.55 29.612 112.286 29.876 111.95 29.876ZM112.394 36.5H111.494V30.704H112.394V36.5ZM119.001 36.5H118.113V32.708C118.113 31.676 117.585 31.364 116.805 31.364C116.097 31.364 115.437 31.796 115.089 32.264V36.5H114.189V30.704H115.089V31.544C115.497 31.052 116.289 30.56 117.165 30.56C118.365 30.56 119.001 31.172 119.001 32.432V36.5ZM122.658 36.644C121.698 36.644 120.906 36.344 120.318 35.732L120.774 35.084C121.158 35.528 121.89 35.912 122.682 35.912C123.57 35.912 124.062 35.492 124.062 34.916C124.062 33.512 120.474 34.376 120.474 32.228C120.474 31.316 121.242 30.56 122.622 30.56C123.618 30.56 124.314 30.932 124.77 31.4L124.35 32.024C124.002 31.604 123.378 31.292 122.622 31.292C121.83 31.292 121.338 31.688 121.338 32.204C121.338 33.464 124.926 32.636 124.926 34.892C124.926 35.864 124.146 36.644 122.658 36.644ZM127.864 36.644C127 36.644 126.568 36.152 126.568 35.288V31.496H125.608V30.704H126.568V29.12H127.48V30.704H128.656V31.496H127.48V35.096C127.48 35.528 127.672 35.84 128.056 35.84C128.32 35.84 128.548 35.72 128.668 35.588L128.932 36.272C128.704 36.488 128.38 36.644 127.864 36.644ZM132.448 36.644C130.684 36.644 129.58 35.276 129.58 33.596C129.58 31.916 130.684 30.56 132.448 30.56C134.212 30.56 135.316 31.916 135.316 33.596C135.316 35.276 134.212 36.644 132.448 36.644ZM132.448 35.84C133.684 35.84 134.368 34.784 134.368 33.596C134.368 32.42 133.684 31.364 132.448 31.364C131.212 31.364 130.528 32.42 130.528 33.596C130.528 34.784 131.212 35.84 132.448 35.84ZM141.595 36.5H140.707V32.708C140.707 31.676 140.179 31.364 139.399 31.364C138.691 31.364 138.031 31.796 137.683 32.264V36.5H136.783V30.704H137.683V31.544C138.091 31.052 138.883 30.56 139.759 30.56C140.959 30.56 141.595 31.172 141.595 32.432V36.5ZM149.137 36.644C147.757 36.644 146.725 36.116 146.065 35.372L146.665 34.604C147.181 35.204 148.045 35.756 149.173 35.756C150.601 35.756 151.057 34.988 151.057 34.364C151.057 32.3 146.317 33.452 146.317 30.596C146.317 29.276 147.493 28.364 149.077 28.364C150.289 28.364 151.237 28.784 151.909 29.492L151.309 30.224C150.709 29.552 149.869 29.264 148.993 29.264C148.045 29.264 147.349 29.78 147.349 30.536C147.349 32.336 152.089 31.304 152.089 34.292C152.089 35.444 151.297 36.644 149.137 36.644ZM158.353 36.5H157.453V35.684C157.009 36.188 156.253 36.644 155.389 36.644C154.177 36.644 153.541 36.044 153.541 34.796V30.704H154.441V34.52C154.441 35.54 154.957 35.84 155.749 35.84C156.445 35.84 157.117 35.432 157.453 34.964V30.704H158.353V36.5ZM163.006 36.644C162.214 36.644 161.53 36.26 161.05 35.624V38.708H160.15V30.704H161.05V31.568C161.47 30.98 162.19 30.56 163.006 30.56C164.53 30.56 165.586 31.712 165.586 33.596C165.586 35.468 164.53 36.644 163.006 36.644ZM162.778 35.84C163.942 35.84 164.638 34.88 164.638 33.596C164.638 32.312 163.942 31.364 162.778 31.364C162.07 31.364 161.362 31.784 161.05 32.288V34.904C161.362 35.408 162.07 35.84 162.778 35.84ZM169.873 36.644C169.081 36.644 168.397 36.26 167.917 35.624V38.708H167.017V30.704H167.917V31.568C168.337 30.98 169.057 30.56 169.873 30.56C171.397 30.56 172.453 31.712 172.453 33.596C172.453 35.468 171.397 36.644 169.873 36.644ZM169.645 35.84C170.809 35.84 171.505 34.88 171.505 33.596C171.505 32.312 170.809 31.364 169.645 31.364C168.937 31.364 168.229 31.784 167.917 32.288V34.904C168.229 35.408 168.937 35.84 169.645 35.84ZM176.416 36.644C174.652 36.644 173.548 35.276 173.548 33.596C173.548 31.916 174.652 30.56 176.416 30.56C178.18 30.56 179.284 31.916 179.284 33.596C179.284 35.276 178.18 36.644 176.416 36.644ZM176.416 35.84C177.652 35.84 178.336 34.784 178.336 33.596C178.336 32.42 177.652 31.364 176.416 31.364C175.18 31.364 174.496 32.42 174.496 33.596C174.496 34.784 175.18 35.84 176.416 35.84ZM181.652 36.5H180.752V30.704H181.652V31.628C182.12 31.028 182.792 30.572 183.584 30.572V31.496C183.476 31.484 183.368 31.472 183.236 31.472C182.672 31.472 181.916 31.928 181.652 32.396V36.5ZM186.189 36.644C185.325 36.644 184.893 36.152 184.893 35.288V31.496H183.933V30.704H184.893V29.12H185.805V30.704H186.98V31.496H185.805V35.096C185.805 35.528 185.997 35.84 186.381 35.84C186.645 35.84 186.873 35.72 186.993 35.588L187.257 36.272C187.029 36.488 186.705 36.644 186.189 36.644Z" fill="#6F5F70"/>
<path d="M103.42 50.644C101.728 50.644 100.648 49.288 100.648 47.596C100.648 45.904 101.728 44.56 103.42 44.56C105.136 44.56 106.216 45.904 106.216 47.596C106.216 49.288 105.136 50.644 103.42 50.644ZM103.42 50.08C104.788 50.08 105.544 48.892 105.544 47.596C105.544 46.312 104.788 45.124 103.42 45.124C102.076 45.124 101.308 46.312 101.308 47.596C101.308 48.892 102.076 50.08 103.42 50.08ZM112.363 50.5H111.739V46.576C111.739 45.46 111.175 45.124 110.335 45.124C109.591 45.124 108.823 45.592 108.451 46.12V50.5H107.827V44.704H108.451V45.58C108.871 45.076 109.699 44.56 110.539 44.56C111.715 44.56 112.363 45.136 112.363 46.444V50.5ZM114.932 50.5H114.308V42.496H114.932V50.5ZM117.186 43.792C116.934 43.792 116.706 43.576 116.706 43.312C116.706 43.048 116.934 42.844 117.186 42.844C117.45 42.844 117.666 43.048 117.666 43.312C117.666 43.576 117.45 43.792 117.186 43.792ZM117.498 50.5H116.874V44.704H117.498V50.5ZM123.977 50.5H123.353V46.576C123.353 45.46 122.789 45.124 121.949 45.124C121.205 45.124 120.437 45.592 120.065 46.12V50.5H119.441V44.704H120.065V45.58C120.485 45.076 121.313 44.56 122.153 44.56C123.329 44.56 123.977 45.136 123.977 46.444V50.5ZM128.489 50.644C126.797 50.644 125.597 49.384 125.597 47.596C125.597 45.916 126.773 44.56 128.381 44.56C130.145 44.56 131.117 45.952 131.117 47.632V47.8H126.269C126.329 49.06 127.169 50.104 128.537 50.104C129.269 50.104 129.941 49.828 130.433 49.3L130.757 49.708C130.181 50.308 129.449 50.644 128.489 50.644ZM130.481 47.308C130.469 46.324 129.821 45.1 128.369 45.1C127.001 45.1 126.317 46.3 126.269 47.308H130.481Z" fill="#6F5F70"/>
<path fill-rule="evenodd" clip-rule="evenodd" d="M228.333 35C227.004 35 226 36.1616 226 37.5007V45.5035C226 46.8426 227.004 48.0042 228.333 48.0042H237.5C238.829 48.0042 239.833 46.8426 239.833 45.5035V43.9116L243 46.5038V36.5003L239.833 39.0925V38.0723V37.5007C239.833 36.1616 238.829 35 237.5 35H228.333ZM227 37.5007C227 36.6299 227.637 36 228.333 36H237.5C238.196 36 238.833 36.6299 238.833 37.5007V38.0723V45.5035C238.833 46.3743 238.196 47.0042 237.5 47.0042H228.333C227.637 47.0042 227 46.3743 227 45.5035V37.5007Z" fill="#6F5F70"/>
<path d="M267 36.8056C267 42.9881 272.012 48 278.194 48C278.473 48 278.75 47.9898 279.024 47.9697C279.338 47.9467 279.495 47.9352 279.638 47.8529C279.757 47.7847 279.869 47.6638 279.928 47.5407C280 47.392 280 47.2186 280 46.8719V44.8372C280 44.5455 280 44.3997 279.952 44.2748C279.91 44.1643 279.841 44.0661 279.751 43.9885C279.65 43.9007 279.513 43.8508 279.239 43.7512L276.923 42.909C276.604 42.7931 276.445 42.7351 276.294 42.7449C276.16 42.7536 276.032 42.7991 275.923 42.8764C275.799 42.964 275.712 43.1095 275.538 43.4005L274.944 44.3889C273.031 43.5222 271.479 41.9686 270.611 40.0556L271.6 39.4625C271.89 39.2879 272.036 39.2006 272.124 39.077C272.201 38.9679 272.246 38.8396 272.255 38.7062C272.265 38.555 272.207 38.3955 272.091 38.0767L271.249 35.7607C271.149 35.4866 271.099 35.3496 271.012 35.2485C270.934 35.1592 270.836 35.0904 270.725 35.048C270.6 35 270.454 35 270.163 35H268.128C267.781 35 267.608 35 267.459 35.0717C267.336 35.1311 267.215 35.2434 267.147 35.3619C267.065 35.5049 267.053 35.662 267.03 35.9762C267.01 36.2501 267 36.5266 267 36.8056Z" fill="#6F5F70"/>
</svg>
