<svg width="400" height="491" viewBox="0 0 400 491" fill="none" xmlns="http://www.w3.org/2000/svg">
<path d="M392.5 105V105.5H393H394C397.232 105.5 399.5 107.367 399.5 110V183C399.5 185.522 397.223 187.5 394 187.5H393H392.5V188V490.5H7.5V227V226.5H7H6C2.68535 226.5 0.5 224.447 0.5 222V176.322C0.5 173.808 3.06474 171.651 6.2984 171.651L7.2917 171.651L7.79167 171.651V171.151V160.385V159.885H7.29167H6.2984C2.97291 159.885 0.5 157.652 0.5 155.214V110C0.5 107.367 2.77451 105.491 6.00449 105.49C6.00524 105.49 6.00599 105.49 6.00673 105.49L6.9948 105.5L7.5 105.505V105V45C7.5 23.5406 25.8767 0.5 52 0.5H348C374.123 0.5 392.5 23.5406 392.5 45V105Z" fill="white" stroke="#BE998F"/>
<mask id="path-2-inside-1_48_315" fill="white">
<path d="M15 48C15 25.9086 32.9086 8 55 8H345C367.091 8 385 25.9086 385 48V490H15V48Z"/>
</mask>
<path d="M15 48C15 25.9086 32.9086 8 55 8H345C367.091 8 385 25.9086 385 48V490H15V48Z" fill="white"/>
<path d="M14 48C14 25.3563 32.3563 7 55 7H345C367.644 7 386 25.3563 386 48H384C384 26.4609 366.539 9 345 9H55C33.4609 9 16 26.4609 16 48H14ZM385 490H15H385ZM14 490V48C14 25.3563 32.3563 7 55 7V9C33.4609 9 16 26.4609 16 48V490H14ZM345 7C367.644 7 386 25.3563 386 48V490H384V48C384 26.4609 366.539 9 345 9V7Z" fill="#BE998F" mask="url(#path-2-inside-1_48_315)"/>
<mask id="path-4-inside-2_48_315" fill="white">
<path d="M20 49C20 29.1178 36.1178 13 56 13H344C363.882 13 380 29.1178 380 49V490H20V49Z"/>
</mask>
<path d="M20 49C20 29.1178 36.1178 13 56 13H344C363.882 13 380 29.1178 380 49V490H20V49Z" fill="#FFFBFF"/>
<path d="M19 49C19 28.5655 35.5655 12 56 12H344C364.435 12 381 28.5655 381 49H379C379 29.67 363.33 14 344 14H56C36.67 14 21 29.67 21 49H19ZM380 490H20H380ZM19 490V49C19 28.5655 35.5655 12 56 12V14C36.67 14 21 29.67 21 49V490H19ZM344 12C364.435 12 381 28.5655 381 49V490H379V49C379 29.67 363.33 14 344 14V12Z" fill="#BE998F" mask="url(#path-4-inside-2_48_315)"/>
<path d="M21 50C21 30.1177 37.1178 14 57 14H343C362.882 14 379 30.1177 379 50V94H21V50Z" fill="#FFFBFF"/>
<path d="M46 54L55 45V63L46 54Z" fill="#6F5F70"/>
<rect x="81" y="34" width="40" height="40" rx="20" fill="#E6E4F2"/>
<path d="M106.563 62C104.509 62 103.007 60.9644 102.057 58.8932C101.597 59.7809 100.992 60.5206 100.241 61.1123C99.4901 61.7041 98.6396 62 97.6894 62C95.0228 62 93.3217 60.1063 92.5861 56.319L91.0459 48.4632C90.908 47.7531 90.6705 47.2575 90.3333 46.9764C89.9961 46.6805 89.5517 46.5326 89 46.5326V46.2441H94.9998V46.5326C93.8504 46.5326 93.406 47.1761 93.6665 48.4632L95.1378 55.9196C95.6895 58.7453 96.9538 60.1581 98.9308 60.1581C100.034 60.1581 101.015 59.5959 101.873 58.4716C101.628 57.7762 101.429 57.0587 101.276 56.319L99.7353 48.4632C99.5974 47.7531 99.3522 47.2575 98.9997 46.9764C98.6626 46.6805 98.2181 46.5326 97.6664 46.5326V46.2441H103.689V46.5326C102.54 46.5326 102.095 47.1761 102.356 48.4632L103.827 55.9196C104.103 57.325 104.524 58.3754 105.092 59.0707C105.659 59.7513 106.448 60.0915 107.459 60.0915C108.762 60.0915 109.927 59.411 110.953 58.0499C111.996 56.6741 112.509 55.0023 112.494 53.0347C112.478 51.4961 112.164 50.2534 111.551 49.3065C110.938 48.3597 110.187 47.8863 109.298 47.8863C108.961 47.8863 108.57 48.0268 108.126 48.3079C107.697 48.589 107.314 48.7369 106.977 48.7517C106.578 48.7665 106.233 48.6408 105.942 48.3745C105.666 48.0934 105.528 47.7679 105.528 47.3981C105.528 46.9986 105.682 46.6657 105.988 46.3994C106.295 46.1331 106.747 46 107.344 46C108.831 46 110.134 46.5992 111.252 47.7975C112.386 48.9958 112.969 50.712 112.999 52.9459C113.015 54.4697 112.754 55.927 112.218 57.3176C111.681 58.6935 110.907 59.8178 109.896 60.6907C108.9 61.5636 107.789 62 106.563 62Z" fill="#6F5F70"/>
<path d="M141.848 47.5H140.408L138.056 38.892L135.704 47.5H134.264L131.224 36.828H132.696L135.064 45.724L137.512 36.828H138.616L141.064 45.724L143.416 36.828H144.904L141.848 47.5ZM146.933 38.668C146.485 38.668 146.117 38.316 146.117 37.868C146.117 37.42 146.485 37.052 146.933 37.052C147.381 37.052 147.733 37.42 147.733 37.868C147.733 38.316 147.381 38.668 146.933 38.668ZM147.525 47.5H146.325V39.772H147.525V47.5ZM156.335 47.5H155.151V42.444C155.151 41.068 154.447 40.652 153.407 40.652C152.463 40.652 151.583 41.228 151.119 41.852V47.5H149.919V39.772H151.119V40.892C151.663 40.236 152.719 39.58 153.887 39.58C155.487 39.58 156.335 40.396 156.335 42.076V47.5ZM161.211 47.692C159.931 47.692 158.875 47.292 158.091 46.476L158.699 45.612C159.211 46.204 160.187 46.716 161.243 46.716C162.427 46.716 163.083 46.156 163.083 45.388C163.083 43.516 158.299 44.668 158.299 41.804C158.299 40.588 159.323 39.58 161.163 39.58C162.491 39.58 163.419 40.076 164.027 40.7L163.467 41.532C163.003 40.972 162.171 40.556 161.163 40.556C160.107 40.556 159.451 41.084 159.451 41.772C159.451 43.452 164.235 42.348 164.235 45.356C164.235 46.652 163.195 47.692 161.211 47.692ZM168.152 47.692C167 47.692 166.424 47.036 166.424 45.884V40.828H165.144V39.772H166.424V37.66H167.64V39.772H169.208V40.828H167.64V45.628C167.64 46.204 167.896 46.62 168.408 46.62C168.76 46.62 169.064 46.46 169.224 46.284L169.576 47.196C169.272 47.484 168.84 47.692 168.152 47.692ZM174.264 47.692C171.912 47.692 170.44 45.868 170.44 43.628C170.44 41.388 171.912 39.58 174.264 39.58C176.616 39.58 178.088 41.388 178.088 43.628C178.088 45.868 176.616 47.692 174.264 47.692ZM174.264 46.62C175.912 46.62 176.824 45.212 176.824 43.628C176.824 42.06 175.912 40.652 174.264 40.652C172.616 40.652 171.704 42.06 171.704 43.628C171.704 45.212 172.616 46.62 174.264 46.62ZM186.46 47.5H185.276V42.444C185.276 41.068 184.572 40.652 183.532 40.652C182.588 40.652 181.708 41.228 181.244 41.852V47.5H180.044V39.772H181.244V40.892C181.788 40.236 182.844 39.58 184.012 39.58C185.612 39.58 186.46 40.396 186.46 42.076V47.5ZM196.516 47.692C194.677 47.692 193.301 46.988 192.421 45.996L193.221 44.972C193.909 45.772 195.061 46.508 196.565 46.508C198.469 46.508 199.077 45.484 199.077 44.652C199.077 41.9 192.757 43.436 192.757 39.628C192.757 37.868 194.325 36.652 196.437 36.652C198.053 36.652 199.317 37.212 200.213 38.156L199.413 39.132C198.613 38.236 197.493 37.852 196.325 37.852C195.061 37.852 194.133 38.54 194.133 39.548C194.133 41.948 200.453 40.572 200.453 44.556C200.453 46.092 199.397 47.692 196.516 47.692ZM208.804 47.5H207.604V46.412C207.012 47.084 206.004 47.692 204.852 47.692C203.236 47.692 202.388 46.892 202.388 45.228V39.772H203.588V44.86C203.588 46.22 204.276 46.62 205.332 46.62C206.26 46.62 207.156 46.076 207.604 45.452V39.772H208.804V47.5ZM215.008 47.692C213.952 47.692 213.04 47.18 212.4 46.332V50.444H211.2V39.772H212.4V40.924C212.96 40.14 213.92 39.58 215.008 39.58C217.04 39.58 218.448 41.116 218.448 43.628C218.448 46.124 217.04 47.692 215.008 47.692ZM214.704 46.62C216.256 46.62 217.184 45.34 217.184 43.628C217.184 41.916 216.256 40.652 214.704 40.652C213.76 40.652 212.816 41.212 212.4 41.884V45.372C212.816 46.044 213.76 46.62 214.704 46.62ZM224.164 47.692C223.108 47.692 222.196 47.18 221.556 46.332V50.444H220.356V39.772H221.556V40.924C222.116 40.14 223.076 39.58 224.164 39.58C226.196 39.58 227.604 41.116 227.604 43.628C227.604 46.124 226.196 47.692 224.164 47.692ZM223.86 46.62C225.412 46.62 226.34 45.34 226.34 43.628C226.34 41.916 225.412 40.652 223.86 40.652C222.916 40.652 221.972 41.212 221.556 41.884V45.372C221.972 46.044 222.916 46.62 223.86 46.62ZM232.889 47.692C230.537 47.692 229.065 45.868 229.065 43.628C229.065 41.388 230.537 39.58 232.889 39.58C235.241 39.58 236.713 41.388 236.713 43.628C236.713 45.868 235.241 47.692 232.889 47.692ZM232.889 46.62C234.537 46.62 235.449 45.212 235.449 43.628C235.449 42.06 234.537 40.652 232.889 40.652C231.241 40.652 230.329 42.06 230.329 43.628C230.329 45.212 231.241 46.62 232.889 46.62ZM239.869 47.5H238.669V39.772H239.869V41.004C240.493 40.204 241.389 39.596 242.445 39.596V40.828C242.301 40.812 242.157 40.796 241.981 40.796C241.229 40.796 240.221 41.404 239.869 42.028V47.5ZM245.918 47.692C244.766 47.692 244.19 47.036 244.19 45.884V40.828H242.91V39.772H244.19V37.66H245.406V39.772H246.974V40.828H245.406V45.628C245.406 46.204 245.662 46.62 246.174 46.62C246.526 46.62 246.83 46.46 246.99 46.284L247.342 47.196C247.038 47.484 246.606 47.692 245.918 47.692Z" fill="#6F5F70"/>
<path d="M135.56 67.692C133.304 67.692 131.864 65.884 131.864 63.628C131.864 61.372 133.304 59.58 135.56 59.58C137.848 59.58 139.288 61.372 139.288 63.628C139.288 65.884 137.848 67.692 135.56 67.692ZM135.56 66.94C137.384 66.94 138.392 65.356 138.392 63.628C138.392 61.916 137.384 60.332 135.56 60.332C133.768 60.332 132.744 61.916 132.744 63.628C132.744 65.356 133.768 66.94 135.56 66.94ZM147.485 67.5H146.653V62.268C146.653 60.78 145.901 60.332 144.781 60.332C143.789 60.332 142.765 60.956 142.269 61.66V67.5H141.437V59.772H142.269V60.94C142.829 60.268 143.933 59.58 145.053 59.58C146.621 59.58 147.485 60.348 147.485 62.092V67.5ZM150.909 67.5H150.077V56.828H150.909V67.5ZM153.915 58.556C153.579 58.556 153.275 58.268 153.275 57.916C153.275 57.564 153.579 57.292 153.915 57.292C154.267 57.292 154.555 57.564 154.555 57.916C154.555 58.268 154.267 58.556 153.915 58.556ZM154.331 67.5H153.499V59.772H154.331V67.5ZM162.969 67.5H162.137V62.268C162.137 60.78 161.385 60.332 160.265 60.332C159.273 60.332 158.249 60.956 157.753 61.66V67.5H156.921V59.772H157.753V60.94C158.313 60.268 159.417 59.58 160.537 59.58C162.105 59.58 162.969 60.348 162.969 62.092V67.5ZM168.986 67.692C166.73 67.692 165.13 66.012 165.13 63.628C165.13 61.388 166.698 59.58 168.842 59.58C171.194 59.58 172.49 61.436 172.49 63.676V63.9H166.026C166.106 65.58 167.226 66.972 169.05 66.972C170.026 66.972 170.922 66.604 171.578 65.9L172.01 66.444C171.242 67.244 170.266 67.692 168.986 67.692ZM171.642 63.244C171.626 61.932 170.762 60.3 168.826 60.3C167.002 60.3 166.09 61.9 166.026 63.244H171.642Z" fill="#6F5F70"/>
<path fill-rule="evenodd" clip-rule="evenodd" d="M292.056 45C290.321 45 289 46.542 289 48.333V59.665C289 61.456 290.321 62.998 292.056 62.998H304.833C306.568 62.998 307.889 61.456 307.889 59.665V57.2474L312.5 61.0815V46.9165L307.889 50.7505V49.1424V48.333C307.889 46.542 306.568 45 304.833 45H292.056ZM290 48.333C290 46.9948 290.968 46 292.056 46H304.833C305.921 46 306.889 46.9948 306.889 48.333V49.1424V59.665C306.889 61.0032 305.921 61.998 304.833 61.998H292.056C290.968 61.998 290 61.0032 290 59.665V48.333Z" fill="#6F5F70"/>
<path d="M340 47.5C340 56.0604 346.94 63 355.5 63C355.886 63 356.269 62.9859 356.648 62.9581C357.083 62.9262 357.301 62.9103 357.499 62.7963C357.663 62.7019 357.818 62.5345 357.901 62.364C358 62.1582 358 61.9181 358 61.438V58.6207C358 58.2169 358 58.015 357.934 57.842C357.875 57.6891 357.779 57.553 357.656 57.4456C357.516 57.324 357.326 57.255 356.947 57.117L353.74 55.9509C353.298 55.7904 353.078 55.7101 352.868 55.7237C352.684 55.7357 352.506 55.7988 352.355 55.9058C352.184 56.0271 352.063 56.2285 351.821 56.6314L351 58C348.35 56.7999 346.202 54.6489 345 52L346.369 51.1788C346.771 50.9371 346.973 50.8163 347.094 50.6451C347.201 50.4941 347.264 50.3164 347.276 50.1317C347.29 49.9223 347.21 49.7015 347.049 49.26L345.883 46.0532C345.745 45.6738 345.676 45.484 345.554 45.3441C345.447 45.2205 345.311 45.1252 345.158 45.0665C344.985 45 344.783 45 344.379 45H341.562C341.082 45 340.842 45 340.636 45.0993C340.465 45.1815 340.298 45.337 340.204 45.501C340.09 45.6991 340.074 45.9166 340.042 46.3517C340.014 46.7309 340 47.1138 340 47.5Z" fill="#6F5F70"/>
</svg>
